<svg width="116" height="116" viewBox="0 0 116 116" fill="none" xmlns="http://www.w3.org/2000/svg">
<g clip-path="url(#clip0_4039_1523)">
<path d="M87.125 94.25H29.125C24.318 94.25 19.7078 92.3404 16.3087 88.9413C12.9096 85.5422 11 80.9321 11 76.125V25.375C11 20.568 12.9096 15.9578 16.3087 12.5587C19.7078 9.15959 24.318 7.25 29.125 7.25H87.125C91.9321 7.25 96.5422 9.15959 99.9413 12.5587C103.34 15.9578 105.25 20.568 105.25 25.375V76.125C105.25 80.9321 103.34 85.5422 99.9413 88.9413C96.5422 92.3404 91.9321 94.25 87.125 94.25ZM29.125 14.5C26.2408 14.5 23.4747 15.6458 21.4352 17.6852C19.3958 19.7247 18.25 22.4908 18.25 25.375V76.125C18.25 79.0092 19.3958 81.7753 21.4352 83.8148C23.4747 85.8542 26.2408 87 29.125 87H87.125C90.0092 87 92.7753 85.8542 94.8148 83.8148C96.8542 81.7753 98 79.0092 98 76.125V25.375C98 22.4908 96.8542 19.7247 94.8148 17.6852C92.7753 15.6458 90.0092 14.5 87.125 14.5H29.125Z" fill="white"/>
<path d="M87.125 79.75H72.625C71.6636 79.75 70.7416 79.3681 70.0617 78.6883C69.3819 78.0084 69 77.0864 69 76.125V61.625C69 60.6636 69.3819 59.7416 70.0617 59.0617C70.7416 58.3819 71.6636 58 72.625 58H87.125C88.0864 58 89.0084 58.3819 89.6883 59.0617C90.3681 59.7416 90.75 60.6636 90.75 61.625V76.125C90.75 77.0864 90.3681 78.0084 89.6883 78.6883C89.0084 79.3681 88.0864 79.75 87.125 79.75ZM76.25 72.5H83.5V65.25H76.25V72.5Z" fill="white"/>
<path d="M101.625 36.25H14.625C13.6636 36.25 12.7416 35.8681 12.0617 35.1883C11.3819 34.5084 11 33.5864 11 32.625C11 31.6636 11.3819 30.7416 12.0617 30.0617C12.7416 29.3819 13.6636 29 14.625 29H101.625C102.586 29 103.508 29.3819 104.188 30.0617C104.868 30.7416 105.25 31.6636 105.25 32.625C105.25 33.5864 104.868 34.5084 104.188 35.1883C103.508 35.8681 102.586 36.25 101.625 36.25Z" fill="white"/>
<path d="M40 21.75C39.0386 21.75 38.1166 21.3681 37.4367 20.6883C36.7569 20.0084 36.375 19.0864 36.375 18.125V3.625C36.375 2.66359 36.7569 1.74156 37.4367 1.06174C38.1166 0.381918 39.0386 0 40 0C40.9614 0 41.8834 0.381918 42.5633 1.06174C43.2431 1.74156 43.625 2.66359 43.625 3.625V18.125C43.625 19.0864 43.2431 20.0084 42.5633 20.6883C41.8834 21.3681 40.9614 21.75 40 21.75Z" fill="white"/>
<path d="M76.25 21.75C75.2886 21.75 74.3666 21.3681 73.6867 20.6883C73.0069 20.0084 72.625 19.0864 72.625 18.125V3.625C72.625 2.66359 73.0069 1.74156 73.6867 1.06174C74.3666 0.381918 75.2886 0 76.25 0C77.2114 0 78.1334 0.381918 78.8133 1.06174C79.4931 1.74156 79.875 2.66359 79.875 3.625V18.125C79.875 19.0864 79.4931 20.0084 78.8133 20.6883C78.1334 21.3681 77.2114 21.75 76.25 21.75Z" fill="white"/>
</g>
<defs>
<clipPath id="clip0_4039_1523">
<rect width="116" height="116" fill="white"/>
</clipPath>
</defs>
</svg>
