<svg width="116" height="116" viewBox="0 0 116 116" fill="none" xmlns="http://www.w3.org/2000/svg">
<g clip-path="url(#clip0_4036_1519)">
<path fill-rule="evenodd" clip-rule="evenodd" d="M74.6706 68.5484C67.8616 74.0083 59.3926 76.9777 50.6672 76.9627C40.4692 76.9627 30.6878 72.9093 23.4747 65.6926C16.2641 58.4759 12.2124 48.6888 12.2124 38.4814C12.2124 28.2763 16.2641 18.4882 23.4747 11.2701C30.6864 4.05453 40.4678 0 50.6672 0C60.8662 0 70.6466 4.05453 77.8596 11.2701C85.0713 18.4868 89.122 28.275 89.122 38.4814C89.1368 47.2129 86.1696 55.6877 80.7135 62.5014L114.758 96.5698C114.758 96.5698 117.608 99.6048 114.68 102.536C111.91 105.309 108.717 102.615 108.717 102.615L74.6706 68.5484ZM50.6672 8.55335C67.1598 8.55335 80.5761 21.9792 80.5761 38.483C80.5761 54.9871 67.1596 68.4127 50.6672 68.4127C34.1745 68.4127 20.7582 54.9868 20.7582 38.483C20.7582 21.9789 34.1748 8.55335 50.6672 8.55335Z" fill="#025EA1"/>
</g>
<defs>
<clipPath id="clip0_4036_1519">
<rect width="116" height="116" fill="white"/>
</clipPath>
</defs>
</svg>
