<svg width="116" height="116" viewBox="0 0 116 116" fill="none" xmlns="http://www.w3.org/2000/svg">
<path d="M58.0203 60.2656C63.2524 60.261 68.3211 58.4425 72.3629 55.1199C76.4047 51.7974 79.1695 47.1764 80.1865 42.044C81.2034 36.9117 80.4096 31.5855 77.9401 26.9728C75.4706 22.3601 71.4784 18.7462 66.6433 16.7468C61.8083 14.7474 56.4296 14.4861 51.4235 16.0074C46.4175 17.5287 42.0937 20.7386 39.1887 25.0902C36.2838 29.4419 34.9774 34.666 35.4921 39.8728C36.0067 45.0795 38.3107 49.9468 42.0114 53.6455C44.1122 55.749 46.608 57.4167 49.3553 58.5528C52.1026 59.6889 55.0473 60.271 58.0203 60.2656ZM45.6454 25.2753C48.5081 22.4123 52.275 20.6304 56.3042 20.2334C60.3335 19.8364 64.3757 20.8488 67.7421 23.098C71.1086 25.3473 73.591 28.6942 74.7663 32.5686C75.9417 36.443 75.7373 40.605 74.1879 44.3455C72.6385 48.0861 69.8401 51.1737 66.2694 53.0822C62.6987 54.9907 58.5768 55.6021 54.6058 54.8121C50.6349 54.0222 47.0608 51.8797 44.4924 48.7499C41.924 45.6201 40.5204 41.6966 40.5206 37.6479C40.5177 35.3497 40.969 33.0735 41.8485 30.9502C42.728 28.827 44.0183 26.8984 45.6454 25.2753Z" fill="white"/>
<path d="M58.0203 63.8521C38.8531 63.8521 23.2588 79.4441 23.2588 98.6113C23.2588 98.9487 23.3252 99.2828 23.4544 99.5945C23.5835 99.9062 23.7727 100.189 24.0113 100.428C24.2499 100.667 24.5331 100.856 24.8448 100.985C25.1565 101.114 25.4906 101.18 25.828 101.18H90.2103C90.8917 101.18 91.5452 100.91 92.027 100.428C92.5088 99.9462 92.7795 99.2927 92.7795 98.6113C92.7795 79.4441 77.1852 63.8521 58.0203 63.8521ZM28.5082 96.0421C29.8132 80.9077 42.5551 68.9905 58.0203 68.9905C73.4854 68.9905 86.225 80.9077 87.53 96.0421H28.5082Z" fill="white"/>
</svg>
